<svg style="transition: transform 0.2s ease-out 0s; transform: translate(-4.68991%, -1.17248%) scale(1.05862);" width="244" height="365" viewBox="0 0 244 365" fill="none" class="svg"><circle cx="6" cy="6" r="6" fill="#D2C1FD"></circle><circle cx="6" cy="27" r="6" fill="#D2C1FD"></circle><circle cx="6" cy="48" r="6" fill="#D2C1FD"></circle><circle cx="6" cy="69" r="6" fill="#D2C1FD"></circle><circle cx="6" cy="91" r="6" fill="#D2C1FD"></circle><circle cx="6" cy="112" r="6" fill="#D2C1FD"></circle><circle cx="6" cy="133" r="6" fill="#D2C1FD"></circle><circle cx="6" cy="174" r="6" fill="#D2C1FD"></circle><circle cx="6" cy="215" r="6" fill="#D2C1FD"></circle><circle cx="6" cy="256" r="6" fill="#D2C1FD"></circle><circle cx="6" cy="297" r="6" fill="#D2C1FD"></circle><circle cx="6" cy="338" r="6" fill="#D2C1FD"></circle><circle cx="6" cy="154" r="6" fill="#D2C1FD"></circle><circle cx="6" cy="195" r="6" fill="#D2C1FD"></circle><circle cx="6" cy="236" r="6" fill="#D2C1FD"></circle><circle cx="6" cy="277" r="6" fill="#D2C1FD"></circle><circle cx="6" cy="318" r="6" fill="#D2C1FD"></circle><circle cx="6" cy="359" r="6" fill="#D2C1FD"></circle><circle cx="27" cy="6" r="6" fill="#D2C1FD"></circle><circle cx="27" cy="27" r="6" fill="#D2C1FD"></circle><circle cx="27" cy="48" r="6" fill="#D2C1FD"></circle><circle cx="27" cy="69" r="6" fill="#D2C1FD"></circle><circle cx="27" cy="91" r="6" fill="#D2C1FD"></circle><circle cx="27" cy="112" r="6" fill="#D2C1FD"></circle><circle cx="27" cy="133" r="6" fill="#D2C1FD"></circle><circle cx="27" cy="174" r="6" fill="#D2C1FD"></circle><circle cx="27" cy="215" r="6" fill="#D2C1FD"></circle><circle cx="27" cy="256" r="6" fill="#D2C1FD"></circle><circle cx="27" cy="297" r="6" fill="#D2C1FD"></circle><circle cx="27" cy="338" r="6" fill="#D2C1FD"></circle><circle cx="27" cy="154" r="6" fill="#D2C1FD"></circle><circle cx="27" cy="195" r="6" fill="#D2C1FD"></circle><circle cx="27" cy="236" r="6" fill="#D2C1FD"></circle><circle cx="27" cy="277" r="6" fill="#D2C1FD"></circle><circle cx="27" cy="318" r="6" fill="#D2C1FD"></circle><circle cx="27" cy="359" r="6" fill="#D2C1FD"></circle><circle cx="48" cy="6" r="6" fill="#D2C1FD"></circle><circle cx="48" cy="27" r="6" fill="#D2C1FD"></circle><circle cx="48" cy="48" r="6" fill="#D2C1FD"></circle><circle cx="48" cy="69" r="6" fill="#D2C1FD"></circle><circle cx="48" cy="91" r="6" fill="#D2C1FD"></circle><circle cx="48" cy="112" r="6" fill="#D2C1FD"></circle><circle cx="48" cy="133" r="6" fill="#D2C1FD"></circle><circle cx="48" cy="174" r="6" fill="#D2C1FD"></circle><circle cx="48" cy="215" r="6" fill="#D2C1FD"></circle><circle cx="48" cy="256" r="6" fill="#D2C1FD"></circle><circle cx="48" cy="297" r="6" fill="#D2C1FD"></circle><circle cx="48" cy="338" r="6" fill="#D2C1FD"></circle><circle cx="48" cy="154" r="6" fill="#D2C1FD"></circle><circle cx="48" cy="195" r="6" fill="#D2C1FD"></circle><circle cx="48" cy="236" r="6" fill="#D2C1FD"></circle><circle cx="48" cy="277" r="6" fill="#D2C1FD"></circle><circle cx="48" cy="318" r="6" fill="#D2C1FD"></circle><circle cx="48" cy="359" r="6" fill="#D2C1FD"></circle><circle cx="69" cy="6" r="6" fill="#D2C1FD"></circle><circle cx="69" cy="27" r="6" fill="#D2C1FD"></circle><circle cx="69" cy="48" r="6" fill="#D2C1FD"></circle><circle cx="69" cy="69" r="6" fill="#D2C1FD"></circle><circle cx="69" cy="91" r="6" fill="#D2C1FD"></circle><circle cx="69" cy="112" r="6" fill="#D2C1FD"></circle><circle cx="69" cy="133" r="6" fill="#D2C1FD"></circle><circle cx="69" cy="174" r="6" fill="#D2C1FD"></circle><circle cx="69" cy="215" r="6" fill="#D2C1FD"></circle><circle cx="69" cy="256" r="6" fill="#D2C1FD"></circle><circle cx="69" cy="297" r="6" fill="#D2C1FD"></circle><circle cx="69" cy="338" r="6" fill="#D2C1FD"></circle><circle cx="69" cy="154" r="6" fill="#D2C1FD"></circle><circle cx="69" cy="195" r="6" fill="#D2C1FD"></circle><circle cx="69" cy="236" r="6" fill="#D2C1FD"></circle><circle cx="69" cy="277" r="6" fill="#D2C1FD"></circle><circle cx="69" cy="318" r="6" fill="#D2C1FD"></circle><circle cx="69" cy="359" r="6" fill="#D2C1FD"></circle><circle cx="91" cy="6" r="6" fill="#D2C1FD"></circle><circle cx="91" cy="27" r="6" fill="#D2C1FD"></circle><circle cx="91" cy="48" r="6" fill="#D2C1FD"></circle><circle cx="91" cy="69" r="6" fill="#D2C1FD"></circle><circle cx="91" cy="91" r="6" fill="#D2C1FD"></circle><circle cx="91" cy="112" r="6" fill="#D2C1FD"></circle><circle cx="91" cy="133" r="6" fill="#D2C1FD"></circle><circle cx="91" cy="174" r="6" fill="#D2C1FD"></circle><circle cx="91" cy="215" r="6" fill="#D2C1FD"></circle><circle cx="91" cy="256" r="6" fill="#D2C1FD"></circle><circle cx="91" cy="297" r="6" fill="#D2C1FD"></circle><circle cx="91" cy="338" r="6" fill="#D2C1FD"></circle><circle cx="91" cy="154" r="6" fill="#D2C1FD"></circle><circle cx="91" cy="195" r="6" fill="#D2C1FD"></circle><circle cx="91" cy="236" r="6" fill="#D2C1FD"></circle><circle cx="91" cy="277" r="6" fill="#D2C1FD"></circle><circle cx="91" cy="318" r="6" fill="#D2C1FD"></circle><circle cx="91" cy="359" r="6" fill="#D2C1FD"></circle><circle cx="112" cy="6" r="6" fill="#D2C1FD"></circle><circle cx="112" cy="27" r="6" fill="#D2C1FD"></circle><circle cx="112" cy="48" r="6" fill="#D2C1FD"></circle><circle cx="112" cy="69" r="6" fill="#D2C1FD"></circle><circle cx="112" cy="91" r="6" fill="#D2C1FD"></circle><circle cx="112" cy="112" r="6" fill="#D2C1FD"></circle><circle cx="112" cy="133" r="6" fill="#D2C1FD"></circle><circle cx="112" cy="174" r="6" fill="#D2C1FD"></circle><circle cx="112" cy="215" r="6" fill="#D2C1FD"></circle><circle cx="112" cy="256" r="6" fill="#D2C1FD"></circle><circle cx="112" cy="297" r="6" fill="#D2C1FD"></circle><circle cx="112" cy="338" r="6" fill="#D2C1FD"></circle><circle cx="112" cy="154" r="6" fill="#D2C1FD"></circle><circle cx="112" cy="195" r="6" fill="#D2C1FD"></circle><circle cx="112" cy="236" r="6" fill="#D2C1FD"></circle><circle cx="112" cy="277" r="6" fill="#D2C1FD"></circle><circle cx="112" cy="318" r="6" fill="#D2C1FD"></circle><circle cx="112" cy="359" r="6" fill="#D2C1FD"></circle><circle cx="133" cy="6" r="6" fill="#D2C1FD"></circle><circle cx="175" cy="6" r="6" fill="#D2C1FD"></circle><circle cx="217" cy="6" r="6" fill="#D2C1FD"></circle><circle cx="133" cy="27" r="6" fill="#D2C1FD"></circle><circle cx="175" cy="27" r="6" fill="#D2C1FD"></circle><circle cx="217" cy="27" r="6" fill="#D2C1FD"></circle><circle cx="133" cy="48" r="6" fill="#D2C1FD"></circle><circle cx="175" cy="48" r="6" fill="#D2C1FD"></circle><circle cx="217" cy="48" r="6" fill="#D2C1FD"></circle><circle cx="133" cy="69" r="6" fill="#D2C1FD"></circle><circle cx="175" cy="69" r="6" fill="#D2C1FD"></circle><circle cx="217" cy="69" r="6" fill="#D2C1FD"></circle><circle cx="133" cy="91" r="6" fill="#D2C1FD"></circle><circle cx="175" cy="91" r="6" fill="#D2C1FD"></circle><circle cx="217" cy="91" r="6" fill="#D2C1FD"></circle><circle cx="133" cy="112" r="6" fill="#D2C1FD"></circle><circle cx="175" cy="112" r="6" fill="#D2C1FD"></circle><circle cx="217" cy="112" r="6" fill="#D2C1FD"></circle><circle cx="133" cy="133" r="6" fill="#D2C1FD"></circle><circle cx="175" cy="133" r="6" fill="#D2C1FD"></circle><circle cx="217" cy="133" r="6" fill="#D2C1FD"></circle><circle cx="133" cy="174" r="6" fill="#D2C1FD"></circle><circle cx="175" cy="174" r="6" fill="#D2C1FD"></circle><circle cx="217" cy="174" r="6" fill="#D2C1FD"></circle><circle cx="133" cy="215" r="6" fill="#D2C1FD"></circle><circle cx="175" cy="215" r="6" fill="#D2C1FD"></circle><circle cx="217" cy="215" r="6" fill="#D2C1FD"></circle><circle cx="133" cy="256" r="6" fill="#D2C1FD"></circle><circle cx="175" cy="256" r="6" fill="#D2C1FD"></circle><circle cx="217" cy="256" r="6" fill="#D2C1FD"></circle><circle cx="133" cy="297" r="6" fill="#D2C1FD"></circle><circle cx="175" cy="297" r="6" fill="#D2C1FD"></circle><circle cx="217" cy="297" r="6" fill="#D2C1FD"></circle><circle cx="133" cy="338" r="6" fill="#D2C1FD"></circle><circle cx="175" cy="338" r="6" fill="#D2C1FD"></circle><circle cx="217" cy="338" r="6" fill="#D2C1FD"></circle><circle cx="133" cy="154" r="6" fill="#D2C1FD"></circle><circle cx="175" cy="154" r="6" fill="#D2C1FD"></circle><circle cx="217" cy="154" r="6" fill="#D2C1FD"></circle><circle cx="133" cy="195" r="6" fill="#D2C1FD"></circle><circle cx="175" cy="195" r="6" fill="#D2C1FD"></circle><circle cx="217" cy="195" r="6" fill="#D2C1FD"></circle><circle cx="133" cy="236" r="6" fill="#D2C1FD"></circle><circle cx="175" cy="236" r="6" fill="#D2C1FD"></circle><circle cx="217" cy="236" r="6" fill="#D2C1FD"></circle><circle cx="133" cy="277" r="6" fill="#D2C1FD"></circle><circle cx="175" cy="277" r="6" fill="#D2C1FD"></circle><circle cx="217" cy="277" r="6" fill="#D2C1FD"></circle><circle cx="133" cy="318" r="6" fill="#D2C1FD"></circle><circle cx="175" cy="318" r="6" fill="#D2C1FD"></circle><circle cx="217" cy="318" r="6" fill="#D2C1FD"></circle><circle cx="133" cy="359" r="6" fill="#D2C1FD"></circle><circle cx="175" cy="359" r="6" fill="#D2C1FD"></circle><circle cx="217" cy="359" r="6" fill="#D2C1FD"></circle><circle cx="154" cy="6" r="6" fill="#D2C1FD"></circle><circle cx="196" cy="6" r="6" fill="#D2C1FD"></circle><circle cx="238" cy="6" r="6" fill="#D2C1FD"></circle><circle cx="154" cy="27" r="6" fill="#D2C1FD"></circle><circle cx="196" cy="27" r="6" fill="#D2C1FD"></circle><circle cx="238" cy="27" r="6" fill="#D2C1FD"></circle><circle cx="154" cy="48" r="6" fill="#D2C1FD"></circle><circle cx="196" cy="48" r="6" fill="#D2C1FD"></circle><circle cx="238" cy="48" r="6" fill="#D2C1FD"></circle><circle cx="154" cy="69" r="6" fill="#D2C1FD"></circle><circle cx="196" cy="69" r="6" fill="#D2C1FD"></circle><circle cx="238" cy="69" r="6" fill="#D2C1FD"></circle><circle cx="154" cy="91" r="6" fill="#D2C1FD"></circle><circle cx="196" cy="91" r="6" fill="#D2C1FD"></circle><circle cx="238" cy="91" r="6" fill="#D2C1FD"></circle><circle cx="154" cy="112" r="6" fill="#D2C1FD"></circle><circle cx="196" cy="112" r="6" fill="#D2C1FD"></circle><circle cx="238" cy="112" r="6" fill="#D2C1FD"></circle><circle cx="154" cy="133" r="6" fill="#D2C1FD"></circle><circle cx="196" cy="133" r="6" fill="#D2C1FD"></circle><circle cx="238" cy="133" r="6" fill="#D2C1FD"></circle><circle cx="154" cy="174" r="6" fill="#D2C1FD"></circle><circle cx="196" cy="174" r="6" fill="#D2C1FD"></circle><circle cx="238" cy="174" r="6" fill="#D2C1FD"></circle><circle cx="154" cy="215" r="6" fill="#D2C1FD"></circle><circle cx="196" cy="215" r="6" fill="#D2C1FD"></circle><circle cx="238" cy="215" r="6" fill="#D2C1FD"></circle><circle cx="154" cy="256" r="6" fill="#D2C1FD"></circle><circle cx="196" cy="256" r="6" fill="#D2C1FD"></circle><circle cx="238" cy="256" r="6" fill="#D2C1FD"></circle><circle cx="154" cy="297" r="6" fill="#D2C1FD"></circle><circle cx="196" cy="297" r="6" fill="#D2C1FD"></circle><circle cx="238" cy="297" r="6" fill="#D2C1FD"></circle><circle cx="154" cy="338" r="6" fill="#D2C1FD"></circle><circle cx="196" cy="338" r="6" fill="#D2C1FD"></circle><circle cx="238" cy="338" r="6" fill="#D2C1FD"></circle><circle cx="154" cy="154" r="6" fill="#D2C1FD"></circle><circle cx="196" cy="154" r="6" fill="#D2C1FD"></circle><circle cx="238" cy="154" r="6" fill="#D2C1FD"></circle><circle cx="154" cy="195" r="6" fill="#D2C1FD"></circle><circle cx="196" cy="195" r="6" fill="#D2C1FD"></circle><circle cx="238" cy="195" r="6" fill="#D2C1FD"></circle><circle cx="154" cy="236" r="6" fill="#D2C1FD"></circle><circle cx="196" cy="236" r="6" fill="#D2C1FD"></circle><circle cx="238" cy="236" r="6" fill="#D2C1FD"></circle><circle cx="154" cy="277" r="6" fill="#D2C1FD"></circle><circle cx="196" cy="277" r="6" fill="#D2C1FD"></circle><circle cx="238" cy="277" r="6" fill="#D2C1FD"></circle><circle cx="154" cy="318" r="6" fill="#D2C1FD"></circle><circle cx="196" cy="318" r="6" fill="#D2C1FD"></circle><circle cx="238" cy="318" r="6" fill="#D2C1FD"></circle><circle cx="154" cy="359" r="6" fill="#D2C1FD"></circle><circle cx="196" cy="359" r="6" fill="#D2C1FD"></circle><circle cx="238" cy="359" r="6" fill="#D2C1FD"></circle></svg>