<svg width="51" height="51" viewBox="0 0 51 51" fill="none" xmlns="http://www.w3.org/2000/svg">
<g clip-path="url(#clip0)">
<path d="M28.4928 8.14201C29.1873 6.46522 31.1097 5.66896 32.7864 6.3635C34.4632 7.05805 35.2595 8.9804 34.5649 10.6572L21.6021 41.9523C20.9076 43.629 18.9852 44.4253 17.3084 43.7308C15.6316 43.0362 14.8354 41.1139 15.5299 39.4371L28.4928 8.14201Z" fill="#9B6BFF"/>
<path d="M37.431 14.3069C37.9653 13.0171 39.444 12.4046 40.7339 12.9388C42.0237 13.4731 42.6362 14.9518 42.1019 16.2416L30.8804 43.3329C30.3461 44.6227 28.8674 45.2353 27.5775 44.701C26.2877 44.1667 25.6752 42.688 26.2095 41.3982L37.431 14.3069Z" fill="#9B6BFF"/>
<path d="M19.2145 6.76136C19.7488 5.47152 21.2275 4.85901 22.5173 5.39328C23.8072 5.92755 24.4197 7.40628 23.8854 8.69611L12.6638 35.7874C12.1296 37.0772 10.6508 37.6897 9.361 37.1555C8.07116 36.6212 7.45866 35.1425 7.99292 33.8526L19.2145 6.76136Z" fill="#9B6BFF"/>
<path d="M41.4371 28.4158C41.8378 27.4484 42.9469 26.989 43.9142 27.3897C44.8816 27.7904 45.341 28.8995 44.9403 29.8668L42.5218 35.7055C42.1211 36.6728 41.0121 37.1322 40.0447 36.7315C39.0773 36.3308 38.618 35.2218 39.0187 34.2544L41.4371 28.4158Z" fill="#9B6BFF"/>
<path d="M7.57302 14.3888C7.97372 13.4214 9.08277 12.962 10.0501 13.3627C11.0175 13.7634 11.4769 14.8725 11.0762 15.8399L8.65776 21.6785C8.25706 22.6459 7.14801 23.1053 6.18064 22.7046C5.21326 22.3039 4.75388 21.1948 5.15458 20.2274L7.57302 14.3888Z" fill="#9B6BFF"/>
</g>
<defs>
<clipPath id="clip0">
<path d="M0 0H133V50.0942H0V0Z" fill="#9B6BFF"/>
</clipPath>
</defs>
</svg>
